<?xml version="1.0" encoding="UTF-8" standalone="no"?><!DOCTYPE svg PUBLIC "-//W3C//DTD SVG 1.1//EN" "http://www.w3.org/Graphics/SVG/1.1/DTD/svg11.dtd"><svg width="100%" height="100%" viewBox="0 0 723 105" version="1.1" xmlns="http://www.w3.org/2000/svg" xmlns:xlink="http://www.w3.org/1999/xlink" xml:space="preserve" style="fill-rule:evenodd;clip-rule:evenodd;stroke-linejoin:round;stroke-miterlimit:1.41421;"><g><path d="M27.593,0.139l-27.593,0l0,63.269c0,22.994 18.256,41.25 41.25,41.25c22.715,0 41.25,-18.256 41.25,-41.25l0,-63.269l-27.593,0l0,62.851c0,7.525 -6.132,13.657 -13.657,13.657c-7.525,0 -13.657,-6.132 -13.657,-13.657l0,-62.851Z" style="fill:#fff;fill-rule:nonzero;"/><path d="M191.478,104.658l0,-104.519l-27.453,0l0,52.19l-33.307,-52.19l-27.314,0l0,104.519l27.453,0l0.002,-52.259l33.166,52.259l27.453,0Z" style="fill:#fff;fill-rule:nonzero;"/><rect x="212.382" y="0.139" width="27.454" height="104.519" style="fill:#fff;fill-rule:nonzero;"/><path d="M258.649,27.314l27.175,0l0,77.344l27.454,0l0,-77.344l27.732,0l0,-27.314l-82.361,0l0,27.314Z" style="fill:#fff;fill-rule:nonzero;"/><path d="M359.963,0.139l0,104.519l27.453,0l0,-39.856l33.168,0l0,39.856l27.453,0l0,-104.519l-27.453,0l0,37.209l-33.168,0l0,-37.209l-27.453,0Z" style="fill:#fff;fill-rule:nonzero;"/><rect x="468.941" y="0.139" width="27.454" height="104.519" style="fill:#fff;fill-rule:nonzero;"/><path d="M605.512,104.658l0,-104.519l-27.454,0l0,52.19l-33.167,-52.19l-27.453,0l0,104.519l27.453,0l0,-52.259l33.167,52.259l27.454,0Z" style="fill:#fff;fill-rule:nonzero;"/><path d="M670.174,43.497l0,23.395l20.207,0c-4.32,6.271 -11.985,10.313 -20.207,10.313c-12.821,0 -24.666,-10.452 -24.666,-24.806c0,-14.354 11.567,-24.806 24.666,-24.806c7.108,0 12.961,2.787 17.42,6.968l19.273,-19.134c-9.477,-9.337 -22.339,-15.288 -36.693,-15.288c-28.847,0 -52.12,23.413 -52.12,52.26c0,28.847 23.273,52.259 52.12,52.259c28.848,0 51.969,-23.482 51.969,-52.329c0.01,-3.03 -0.252,-5.837 -0.753,-8.832l-51.216,0Z" style="fill:#fff;fill-rule:nonzero;"/></g></svg>