<?xml version="1.0" encoding="UTF-8" standalone="no"?><!DOCTYPE svg PUBLIC "-//W3C//DTD SVG 1.1//EN" "http://www.w3.org/Graphics/SVG/1.1/DTD/svg11.dtd"><svg width="100%" height="100%" viewBox="0 0 22 22" version="1.1" xmlns="http://www.w3.org/2000/svg" xmlns:xlink="http://www.w3.org/1999/xlink" xml:space="preserve" style="fill-rule:evenodd;clip-rule:evenodd;stroke-linejoin:round;stroke-miterlimit:1.41421;"><g id="Icon"><path id="utng" d="M6.666,3.516c-2.533,1.44 -4.243,4.164 -4.243,7.284c0,4.623 3.754,8.377 8.377,8.377c4.623,0 8.377,-3.754 8.377,-8.377c0,-3.12 -1.71,-5.844 -4.243,-7.284l1.11,-1.11l0.481,0.322l0.057,0.041l0.461,0.351l0.005,0.004l0.453,0.392l0.045,0.043l0.357,0.351l0.1,0.105l0.298,0.331l0.087,0.1l0.354,0.446l0.022,0.031l0.298,0.427l0.091,0.142l0.212,0.348l0.087,0.152l0.224,0.426l0.039,0.075l0.23,0.514l0.058,0.148l0.146,0.39l0.06,0.178l0.124,0.411l0.041,0.144l0.13,0.559l0.075,0.415l0.014,0.099l0.051,0.402l0.006,0.046l0.033,0.442l0.006,0.106l0.011,0.453c0,5.293 -4.163,9.621 -9.391,9.887l-0.509,0.013c-5.464,0 -9.9,-4.436 -9.9,-9.9l0.011,-0.453l0.006,-0.106l0.033,-0.442l0.006,-0.046l0.051,-0.402l0.014,-0.099l0.075,-0.415l0.13,-0.559l0.041,-0.144l0.124,-0.411l0.06,-0.178l0.146,-0.39l0.058,-0.148l0.23,-0.514l0.039,-0.075l0.224,-0.426l0.087,-0.152l0.212,-0.348l0.091,-0.142l0.298,-0.427l0.022,-0.031l0.354,-0.446l0.087,-0.1l0.298,-0.331l0.1,-0.105l0.357,-0.351l0.045,-0.043l0.453,-0.392l0.005,-0.004l0.461,-0.351l0.057,-0.041l0.481,-0.322l0.112,-0.072c0.437,-0.266 0.896,-0.498 1.374,-0.692l3.758,3.758l3.758,-3.758c0.519,0.213 1.016,0.468 1.486,0.764l-4.119,4.119l4.275,4.275l-5.4,5.4l-5.4,-5.4l4.275,-4.275l-3.009,-3.009Zm4.134,4.134l-3.15,3.15l3.15,3.15l3.15,-3.15l-3.15,-3.15Z" style="fill:#fff;"/></g></svg>